<svg height="480pt" viewBox="0 0 480 480" width="480pt" xmlns="http://www.w3.org/2000/svg"><path d="m440 240c0-30.929688-21.492188-56-48-56s-48 25.070312-48 56 21.492188 56 48 56 48-25.070312 48-56zm0 0" fill="#ffdaaa"/><path d="m312 392c0 8.835938 7.164062 16 16 16s16-7.164062 16-16-7.164062-16-16-16c-8.824219.027344-15.972656 7.175781-16 16zm-14.320312-44.078125 12.082031 4.078125c.796875-.320312 1.519531-.640625 2.238281-.960938.160156-.078124.398438-.160156.558594-.238281l7.441406-14.800781h16l7.441406 14.800781c.957032.398438 1.839844.800781 2.796875 1.199219l15.683594-5.28125 11.359375 11.359375-5.28125 15.683594c.398438.957031.800781 1.839843 1.199219 2.796875l14.800781 7.441406v16l-14.800781 7.441406c-.398438.957032-.800781 1.839844-1.199219 2.796875l5.28125 15.683594-11.359375 11.359375-15.683594-5.28125c-.957031.398438-1.839843.800781-2.796875 1.199219l-7.441406 14.800781h-16l-7.441406-14.800781c-.160156-.078125-.398438-.160157-.558594-.238281-.71875-.320313-1.441406-.640626-2.238281-.960938l-15.683594 5.28125-11.359375-11.359375 5.28125-15.683594c-.398438-.957031-.800781-1.839843-1.199219-2.796875l-14.800781-7.441406v-16l14.800781-7.441406c.398438-.957032.800781-1.839844 1.199219-2.796875l-5.28125-15.683594 11.359375-11.359375zm0 0" fill="#a78966"/><path d="m344 392c0 8.835938-7.164062 16-16 16s-16-7.164062-16-16 7.164062-16 16-16 16 7.164062 16 16zm0 0" fill="#898890"/><path d="m456 472h-144v-39.039062c.160156.078124.398438.160156.558594.238281l7.441406 14.800781h16l7.441406-14.800781c.957032-.398438 1.839844-.800781 2.796875-1.199219l15.683594 5.28125 11.359375-11.359375-5.28125-15.683594c.398438-.957031.800781-1.839843 1.199219-2.796875l14.800781-7.441406v-16l-14.800781-7.441406c-.398438-.957032-.800781-1.839844-1.199219-2.796875l5.28125-15.683594-11.359375-11.359375-15.683594 5.28125c-.957031-.398438-1.839843-.800781-2.796875-1.199219l-7.441406-14.800781h-16l-7.441406 14.800781c-.160156.078125-.398438.160157-.558594.238281v-55.039062h36.640625c5.867187 19.023438 23.449219 32 43.359375 32s37.492188-12.976562 43.359375-32h36.640625v160c-.027344 8.824219-7.175781 15.972656-16 16zm0 0" fill="#57a4ff"/><path d="m288 64c0-30.929688-21.492188-56-48-56s-48 25.070312-48 56 21.492188 56 48 56 48-25.070312 48-56zm0 0" fill="#ffdaaa"/><path d="m256 264c0 8.835938-7.164062 16-16 16s-16-7.164062-16-16 7.164062-16 16-16 16 7.164062 16 16zm0 0" fill="#57565c"/><path d="m224 264c0 8.835938 7.164062 16 16 16s16-7.164062 16-16-7.164062-16-16-16c-8.824219.027344-15.972656 7.175781-16 16zm-28.960938 33.039062 4.960938-14.800781c-.398438-.957031-.800781-1.839843-1.199219-2.796875l-14.800781-7.441406v-16l14.800781-7.441406c.398438-.957032.800781-1.839844 1.199219-2.796875l-5.28125-15.683594 11.359375-11.359375 15.683594 5.28125c.957031-.398438 1.839843-.800781 2.796875-1.199219l7.441406-14.800781h16l7.441406 14.800781c.957032.398438 1.839844.800781 2.796875 1.199219l15.683594-5.28125 11.359375 11.359375-5.28125 15.683594c.398438.957031.800781 1.839843 1.199219 2.796875l14.800781 7.441406v16l-14.800781 7.441406c-.398438.957032-.800781 1.839844-1.199219 2.796875l4.960938 14.800781.320312.882813-11.359375 11.359375-3.601563-1.203125-12.082031-4.078125c-.957031.398438-1.839843.800781-2.796875 1.199219l-7.441406 14.800781h-16l-7.441406-14.800781c-.957032-.398438-1.839844-.800781-2.796875-1.199219l-12.082031 4.078125-.078126.082031-3.523437 1.121094-11.359375-11.359375zm0 0" fill="#806749"/><path d="m136 392c0 8.835938 7.164062 16 16 16s16-7.164062 16-16-7.164062-16-16-16c-8.824219.027344-15.972656 7.175781-16 16zm-17.921875-45.28125 15.683594 5.28125c.957031-.398438 1.839843-.800781 2.796875-1.199219l7.441406-14.800781h16l7.441406 14.800781c.160156.078125.398438.160157.558594.238281.71875.320313 1.441406.640626 2.238281.960938l12.082031-4.078125 3.601563-1.203125 11.359375 11.359375-5.28125 15.683594c.398438.957031.800781 1.839843 1.199219 2.796875l14.800781 7.441406v16l-14.800781 7.441406c-.398438.957032-.800781 1.839844-1.199219 2.796875l5.28125 15.683594-11.359375 11.359375-15.683594-5.28125c-.796875.320312-1.519531.640625-2.238281.960938-.160156.078124-.398438.160156-.558594.238281l-7.441406 14.800781h-16l-7.441406-14.800781c-.957032-.398438-1.839844-.800781-2.796875-1.199219l-15.683594 5.28125-11.359375-11.359375 5.28125-15.683594c-.398438-.957031-.800781-1.839843-1.199219-2.796875l-14.800781-7.441406v-16l14.800781-7.441406c.398438-.957032.800781-1.839844 1.199219-2.796875l-5.28125-15.683594zm0 0" fill="#a78966"/><path d="m168 392c0 8.835938-7.164062 16-16 16s-16-7.164062-16-16 7.164062-16 16-16 16 7.164062 16 16zm0 0" fill="#898890"/><path d="m136 240c0-30.929688-21.492188-56-48-56s-48 25.070312-48 56 21.492188 56 48 56 48-25.070312 48-56zm0 0" fill="#ffdaaa"/><path d="m48 96c1.671875-3.90625 4.832031-6.988281 8.777344-8.566406 3.945312-1.574219 8.359375-1.515625 12.261718.167968l90.960938 32.398438h36.640625c6.535156 18.539062 23.71875 31.21875 43.359375 32 19.640625-.78125 36.824219-13.460938 43.359375-32h36.640625l90.960938-32.398438c8.128906-3.492187 17.546874.269532 21.039062 8.398438s-.269531 17.550781-8.398438 21.039062l-97.28125 41.679688-6.320312 9.28125v128h-32l-3.039062 1.039062-4.960938-14.800781c.398438-.957031.800781-1.839843 1.199219-2.796875l14.800781-7.441406v-16l-14.800781-7.441406c-.398438-.957032-.800781-1.839844-1.199219-2.796875l5.28125-15.683594-11.359375-11.359375-15.683594 5.28125c-.957031-.398438-1.839843-.800781-2.796875-1.199219l-7.441406-14.800781h-16l-7.441406 14.800781c-.957032.398438-1.839844.800781-2.796875 1.199219l-15.683594-5.28125-11.359375 11.359375 5.28125 15.683594c-.398438.957031-.800781 1.839843-1.199219 2.796875l-14.800781 7.441406v16l14.800781 7.441406c.398438.957032.800781 1.839844 1.199219 2.796875l-4.960938 14.800781-3.039062-1.039062h-32v-128l-6.320312-9.28125-97.28125-41.679688c-5.902344-2.515624-9.738282-8.304687-9.757813-14.71875.027344-2.175781.488281-4.324218 1.359375-6.320312zm0 0" fill="#004fac"/><path d="m8 456v-160h36.640625c6.535156 18.539062 23.71875 31.21875 43.359375 32 19.640625-.78125 36.824219-13.460938 43.359375-32h36.640625v55.039062c-.160156-.078124-.398438-.160156-.558594-.238281l-7.441406-14.800781h-16l-7.441406 14.800781c-.957032.398438-1.839844.800781-2.796875 1.199219l-15.683594-5.28125-11.359375 11.359375 5.28125 15.683594c-.398438.957031-.800781 1.839843-1.199219 2.796875l-14.800781 7.441406v16l14.800781 7.441406c.398438.957032.800781 1.839844 1.199219 2.796875l-5.28125 15.683594 11.359375 11.359375 15.683594-5.28125c.957031.398438 1.839843.800781 2.796875 1.199219l7.441406 14.800781h16l7.441406-14.800781c.160156-.078125.398438-.160157.558594-.238281v39.039062h-144c-8.824219-.027344-15.972656-7.175781-16-16zm0 0" fill="#57a4ff"/><path d="m240 128c30.871094 0 56-28.710938 56-64s-25.128906-64-56-64-56 28.710938-56 64 25.128906 64 56 64zm0-112c22.054688 0 40 21.527344 40 48s-17.945312 48-40 48-40-21.527344-40-48 17.945312-48 40-48zm0 0"/><path d="m240 288c13.253906 0 24-10.746094 24-24s-10.746094-24-24-24-24 10.746094-24 24 10.746094 24 24 24zm0-32c4.417969 0 8 3.582031 8 8s-3.582031 8-8 8-8-3.582031-8-8 3.582031-8 8-8zm0 0"/><path d="m152 368c-13.253906 0-24 10.746094-24 24s10.746094 24 24 24 24-10.746094 24-24-10.746094-24-24-24zm0 32c-4.417969 0-8-3.582031-8-8s3.582031-8 8-8 8 3.582031 8 8-3.582031 8-8 8zm0 0"/><path d="m328 416c13.253906 0 24-10.746094 24-24s-10.746094-24-24-24-24 10.746094-24 24 10.746094 24 24 24zm0-32c4.417969 0 8 3.582031 8 8s-3.582031 8-8 8-8-3.582031-8-8 3.582031-8 8-8zm0 0"/><path d="m392 176c-30.871094 0-56 28.710938-56 64s25.128906 64 56 64 56-28.710938 56-64-25.128906-64-56-64zm0 112c-22.054688 0-40-21.527344-40-48s17.945312-48 40-48 40 21.527344 40 48-17.945312 48-40 48zm0 0"/><path d="m472 288h-36.640625c-3.257813 0-6.191406 1.976562-7.414063 5-5.375 15.472656-19.585937 26.148438-35.945312 27-16.359375-.851562-30.570312-11.527344-35.945312-27-1.222657-3.023438-4.15625-5-7.414063-5h-20.640625v-117.527344l3.617188-5.3125 95.152343-40.800781c8.929688-3.828125 14.671875-12.660156 14.542969-22.375s-6.101562-18.394531-15.128906-21.984375c-5.746094-2.347656-12.1875-2.320312-17.910156.070312l-89.65625 31.929688h-35.257813c-3.257813 0-6.191406 1.976562-7.414063 5-5.378906 15.472656-19.589843 26.144531-35.945312 27-16.359375-.851562-30.570312-11.527344-35.945312-27-1.222657-3.023438-4.15625-5-7.414063-5h-35.257813l-89.175781-31.742188c-7.433593-3.160156-15.953125-2.398437-22.703125 2.035157-6.753906 4.433593-10.839844 11.949219-10.894531 20.027343.035156 9.609376 5.773437 18.285157 14.605469 22.070313l95.136718 40.800781 3.617188 5.3125v117.496094h-20.609375c-3.257813 0-6.191406 1.976562-7.414063 5-5.375 15.472656-19.585937 26.148438-35.945312 27-16.359375-.851562-30.570312-11.527344-35.945312-27-1.222657-3.023438-4.15625-5-7.414063-5h-36.640625c-4.417969 0-8 3.582031-8 8v160c0 13.253906 10.746094 24 24 24h144c4.417969 0 8-3.582031 8-8v-29.601562l7.40625 2.464843c2.875.972657 6.050781.226563 8.1875-1.925781l11.316406-11.320312c2.140625-2.144532 2.886719-5.3125 1.929688-8.183594l-3.671875-11.050782 10.398437-5.199218c2.726563-1.355469 4.441406-4.140625 4.433594-7.183594h48c-.015625 3.046875 1.699219 5.839844 4.425781 7.199219l10.398438 5.199219-3.625 11.007812c-.957031 2.875-.210938 6.042969 1.929687 8.1875l11.320313 11.316406c2.136719 2.152344 5.308593 2.898438 8.183593 1.929688l7.367188-2.441406v29.601562c0 4.417969 3.582031 8 8 8h144c13.253906 0 24-10.746094 24-24v-160c0-4.417969-3.582031-8-8-8zm-305.390625-124.496094-6.320313-9.289062c-.855468-1.257813-2.054687-2.25-3.457031-2.847656l-97.246093-41.664063c-2.976563-1.253906-4.917969-4.15625-4.945313-7.382813.023437-1.085937.265625-2.15625.703125-3.152343.835938-1.972657 2.425781-3.53125 4.417969-4.320313 2.144531-.808594 4.527343-.699218 6.589843.296875l90.960938 32.390625c.863281.304688 1.773438.460938 2.6875.464844h31.496094c8.804687 18.992188 27.582031 31.378906 48.503906 32 20.921875-.621094 39.699219-13.007812 48.503906-32h31.496094c.914062-.003906 1.824219-.160156 2.6875-.464844l91.449219-32.589844c1.9375-.851562 4.136719-.886718 6.101562-.097656 3.046875 1.175782 5.074219 4.082032 5.121094 7.347656.046875 3.265626-1.894531 6.230469-4.902344 7.492188l-97.257812 41.679688c-1.398438.597656-2.601563 1.589843-3.457031 2.847656l-6.316407 9.289062c-.917969 1.320313-1.414062 2.886719-1.425781 4.496094v120h-21.601562l-1.207032-3.640625 10.402344-5.199219c2.703125-1.359375 4.410156-4.132812 4.40625-7.160156v-16c.015625-3.046875-1.699219-5.839844-4.425781-7.199219l-10.398438-5.199219 3.671875-11.050781c.957032-2.871093.210938-6.039062-1.925781-8.183593l-11.320313-11.320313c-2.136718-2.152344-5.3125-2.898437-8.1875-1.925781l-11.046874 3.671875-5.199219-10.402344c-1.367188-2.703125-4.140625-4.402344-7.167969-4.390625h-16c-3.03125 0-5.804688 1.710938-7.160156 4.425781l-5.199219 10.398438-11.046875-3.625c-2.875-.972657-6.050781-.222657-8.1875 1.929687l-11.316406 11.269532c-2.140625 2.144531-2.886719 5.3125-1.929688 8.1875l3.671875 11.054687-10.398437 5.199219c-2.71875 1.351562-4.433594 4.125-4.433594 7.160156v16c-.015625 3.046875 1.699219 5.839844 4.425781 7.199219l10.398438 5.199219-1.222657 3.601562h-21.601562v-120c-.003906-1.605469-.488281-3.171875-1.390625-4.496094zm137.390625 178.097656-1.214844-.410156-20.152344-29.34375 7.871094-7.847656h13.496094zm-126.785156-.410156-1.214844.410156v-37.601562h13.496094l7.871094 7.871094zm31-41.113281-4.320313-4.316406 3.671875-11.035157c.648438-1.929687.535156-4.035156-.320312-5.886718-.34375-.734375-.644532-1.496094-.933594-2.273438-.710938-1.882812-2.105469-3.433594-3.90625-4.335937l-10.398438-5.199219v-6.109375l10.398438-5.203125c1.800781-.902344 3.195312-2.449219 3.90625-4.335938.296875-.796874.617188-1.597656.960938-2.320312.832031-1.839844.9375-3.925781.292968-5.839844l-3.671875-11.03125 4.320313-4.320312 11.03125 3.671875c1.933594.648437 4.039062.535156 5.890625-.320313.734375-.34375 1.496093-.648437 2.269531-.933594 1.886719-.710937 3.433594-2.105468 4.335938-3.90625l5.203124-10.398437h6.109376l5.203124 10.398437c.902344 1.800782 2.449219 3.195313 4.335938 3.90625.796875.296876 1.597656.613282 2.316406.957032 1.839844.832031 3.925782.941406 5.84375.296875l11.03125-3.671875 4.320313 4.320312-3.671875 11.03125c-.648438 1.933594-.535156 4.039063.320312 5.890625.34375.734375.644532 1.496094.933594 2.269531.710938 1.886719 2.105469 3.433594 3.90625 4.335938l10.398438 5.203125v6.109375l-10.398438 5.199219c-1.800781.902343-3.195312 2.453125-3.90625 4.335937-.296875.800782-.617188 1.601563-.960938 2.320313-.832031 1.839843-.9375 3.925781-.292968 5.839843l3.671875 11.035157-4.320313 4.316406-11.03125-3.671875c-1.933594-.644531-4.039062-.53125-5.890625.320312-.734375.34375-1.496093.648438-2.269531.9375-1.886719.710938-3.433594 2.101563-4.335938 3.902344l-5.203124 10.402344h-6.109376l-5.203124-10.402344c-.902344-1.800781-2.449219-3.191406-4.335938-3.902344-.796875-.296874-1.597656-.617187-2.316406-.960937-1.839844-.832031-3.925782-.9375-5.84375-.296875zm-48.214844 163.921875h-136c-4.417969 0-8-3.582031-8-8v-152h23.496094c8.804687 18.992188 27.582031 31.378906 48.503906 32 20.921875-.621094 39.699219-13.007812 48.503906-32h23.496094v24h-16c-3.03125 0-5.804688 1.710938-7.160156 4.425781l-5.199219 10.398438-11.046875-3.625c-2.875-.972657-6.050781-.222657-8.1875 1.929687l-11.316406 11.269532c-2.140625 2.144531-2.886719 5.3125-1.929688 8.1875l3.671875 11.054687-10.398437 5.199219c-2.71875 1.351562-4.433594 4.125-4.433594 7.160156v16c-.015625 3.046875 1.699219 5.839844 4.425781 7.199219l10.398438 5.199219-3.625 11.007812c-.957031 2.875-.210938 6.042969 1.929687 8.1875l11.320313 11.316406c2.136719 2.152344 5.308593 2.902344 8.183593 1.929688l11.046876-3.671875 5.199218 10.398437c1.347656 2.703125 4.101563 4.417969 7.121094 4.433594h16zm40-68.945312-10.398438 5.203124c-1.800781.902344-3.195312 2.449219-3.90625 4.335938-.296874.796875-.617187 1.597656-.960937 2.316406-.832031 1.839844-.9375 3.925782-.292969 5.84375l3.671875 11.03125-4.320312 4.320313-11.03125-3.671875c-1.933594-.648438-4.039063-.535156-5.890625.320312-.734375.34375-1.496094.644532-2.269532.933594-1.886718.710938-3.433593 2.105469-4.335937 3.90625l-5.203125 10.398438h-6.109375l-5.199219-10.398438c-.902344-1.800781-2.453125-3.195312-4.339844-3.90625-.796874-.296875-1.597656-.617188-2.316406-.960938-1.839844-.835937-3.929687-.945312-5.839844-.292968l-11.035156 3.671875-4.320312-4.320313 3.671875-11.03125c.648437-1.933594.535156-4.039062-.316407-5.890625-.347656-.734375-.648437-1.496093-.9375-2.269531-.710937-1.886719-2.105468-3.433594-3.90625-4.335938l-10.398437-5.203124v-6.109376l10.398437-5.203124c1.800782-.902344 3.195313-2.449219 3.90625-4.335938.296876-.796875.617188-1.597656.960938-2.316406.832031-1.839844.9375-3.925782.292969-5.84375l-3.671875-11.03125 4.320312-4.320313 11.035156 3.671875c1.929688.648438 4.035157.535156 5.886719-.320312.734375-.34375 1.496094-.644532 2.269531-.933594 1.886719-.710938 3.4375-2.105469 4.339844-3.90625l5.199219-10.398438h6.109375l5.203125 10.398438c.902344 1.800781 2.449219 3.195312 4.335937 3.90625.796876.296875 1.597657.617188 2.320313.960938 1.835937.832031 3.925781.9375 5.839844.292968l11.03125-3.671875 4.320312 4.320313-3.671875 11.03125c-.648437 1.933594-.535156 4.039062.320313 5.890625.34375.734375.644531 1.496093.933593 2.269531.710938 1.886719 2.105469 3.433594 3.90625 4.335938l10.398438 5.203124zm16-11.054688c.015625-3.046875-1.699219-5.839844-4.425781-7.199219l-10.398438-5.199219 3.671875-11.050781c.957032-2.871093.210938-6.039062-1.925781-8.183593l-8.28125-8.277344 20.152344-29.347656 4.855469-1.597657 5.199218 10.398438c1.34375 2.722656 4.117188 4.449219 7.152344 4.457031h16c3.046875.015625 5.839844-1.699219 7.199219-4.425781l5.199219-10.398438 4.859374 1.601563 20.148438 29.34375-8.277344 8.277344c-2.140625 2.144531-2.886718 5.3125-1.929687 8.1875l3.671875 11.046874-10.398438 5.199219c-2.734375 1.34375-4.46875 4.121094-4.472656 7.167969zm80.214844 44.105469-4.320313-4.320313 3.671875-11.03125c.648438-1.933594.535156-4.039062-.320312-5.890625-.34375-.734375-.644532-1.496093-.933594-2.269531-.710938-1.886719-2.105469-3.433594-3.90625-4.335938l-10.398438-5.203124v-6.109376l10.398438-5.203124c1.800781-.902344 3.195312-2.449219 3.90625-4.335938.289062-.796875.589844-1.535156.933594-2.269531.855468-1.851563.96875-3.957031.320312-5.890625l-3.671875-11.03125 4.320313-4.320313 11.03125 3.671875c1.917968.644532 4.003906.539063 5.84375-.292968.75-.34375 1.527344-.664063 2.316406-.960938 1.886719-.710938 3.433594-2.105469 4.335938-3.90625l5.203124-10.398438h6.109376l5.203124 10.398438c.902344 1.800781 2.449219 3.195312 4.335938 3.90625.796875.296875 1.597656.617188 2.316406.960938 1.839844.832031 3.925782.9375 5.84375.292968l11.03125-3.671875 4.320313 4.320313-3.671875 11.03125c-.644532 1.917968-.539063 4.003906.292968 5.84375.34375.75.664063 1.527344.960938 2.316406.710938 1.886719 2.105469 3.433594 3.90625 4.335938l10.398438 5.203124v6.109376l-10.398438 5.203124c-1.800781.902344-3.195312 2.449219-3.90625 4.335938-.296875.796875-.617188 1.597656-.960938 2.316406-.832031 1.839844-.9375 3.925782-.292968 5.84375l3.671875 11.03125-4.320313 4.320313-11.03125-3.671875c-1.933594-.648438-4.039062-.535156-5.890625.320312-.734375.34375-1.496093.644532-2.269531.933594-1.886719.710938-3.433594 2.105469-4.335938 3.90625l-5.203124 10.398438h-6.109376l-5.203124-10.398438c-.902344-1.800781-2.449219-3.195312-4.335938-3.90625-.796875-.289062-1.535156-.589844-2.269531-.933594-1.851563-.855468-3.957031-.96875-5.890625-.320312zm167.785156 27.894531c0 4.417969-3.582031 8-8 8h-136v-8h16c3.046875.015625 5.839844-1.699219 7.199219-4.425781l5.199219-10.398438 11.050781 3.671875c2.871093.96875 6.046875.222656 8.183593-1.925781l11.320313-11.320313c2.140625-2.144531 2.886719-5.3125 1.925781-8.1875l-3.671875-11.046874 10.402344-5.199219c2.703125-1.367188 4.402344-4.140625 4.390625-7.167969v-16c.015625-3.046875-1.699219-5.839844-4.425781-7.199219l-10.398438-5.199219 3.671875-11.050781c.957032-2.871093.210938-6.039062-1.925781-8.183593l-11.320313-11.320313c-2.140624-2.148437-5.3125-2.898437-8.1875-1.925781l-11.046874 3.671875-5.199219-10.402344c-1.367188-2.703125-4.140625-4.402344-7.167969-4.390625h-16v-24h23.496094c8.308594 19.410156 27.390625 32 48.503906 32s40.195312-12.589844 48.503906-32h23.496094zm0 0"/><path d="m440 440h16v16h-16zm0 0"/><path d="m416 440h16v16h-16zm0 0"/><path d="m440 416h16v16h-16zm0 0"/><path d="m24 440h16v16h-16zm0 0"/><path d="m48 440h16v16h-16zm0 0"/><path d="m24 416h16v16h-16zm0 0"/><path d="m88 304c30.871094 0 56-28.710938 56-64s-25.128906-64-56-64-56 28.710938-56 64 25.128906 64 56 64zm0-112c22.054688 0 40 21.527344 40 48s-17.945312 48-40 48-40-21.527344-40-48 17.945312-48 40-48zm0 0"/></svg>